<mxfile host="app.diagrams.net" modified="2023-10-16T12:06:50.925Z" agent="Mozilla/5.0 (Windows NT 10.0; Win64; x64) AppleWebKit/537.36 (KHTML, like Gecko) Chrome/117.0.0.0 Safari/537.36" etag="sspBBZsm2rHoMYHnhwOe" version="22.0.4" type="github">
  <diagram id="C5RBs43oDa-KdzZeNtuy" name="Page-1">
    <mxGraphModel dx="2801" dy="600" grid="1" gridSize="10" guides="1" tooltips="1" connect="1" arrows="1" fold="1" page="1" pageScale="1" pageWidth="827" pageHeight="1169" math="0" shadow="0">
      <root>
        <mxCell id="WIyWlLk6GJQsqaUBKTNV-0" />
        <mxCell id="WIyWlLk6GJQsqaUBKTNV-1" parent="WIyWlLk6GJQsqaUBKTNV-0" />
        <mxCell id="Fx_bJ2mfmY8YGPZaH9oz-27" style="edgeStyle=orthogonalEdgeStyle;rounded=0;orthogonalLoop=1;jettySize=auto;html=1;" edge="1" parent="WIyWlLk6GJQsqaUBKTNV-1" source="Fx_bJ2mfmY8YGPZaH9oz-4" target="Fx_bJ2mfmY8YGPZaH9oz-14">
          <mxGeometry relative="1" as="geometry" />
        </mxCell>
        <mxCell id="Fx_bJ2mfmY8YGPZaH9oz-36" style="edgeStyle=orthogonalEdgeStyle;rounded=0;orthogonalLoop=1;jettySize=auto;html=1;entryX=0.5;entryY=0;entryDx=0;entryDy=0;" edge="1" parent="WIyWlLk6GJQsqaUBKTNV-1" source="Fx_bJ2mfmY8YGPZaH9oz-4" target="Fx_bJ2mfmY8YGPZaH9oz-28">
          <mxGeometry relative="1" as="geometry" />
        </mxCell>
        <mxCell id="Fx_bJ2mfmY8YGPZaH9oz-4" value="public &lt;font color=&quot;#7f00ff&quot;&gt;abstract&lt;/font&gt; class&amp;nbsp;&lt;font style=&quot;border-color: var(--border-color); font-weight: 700;&quot; color=&quot;#9933ff&quot;&gt;State&lt;br&gt;&lt;/font&gt;" style="swimlane;fontStyle=0;childLayout=stackLayout;horizontal=1;startSize=30;horizontalStack=0;resizeParent=1;resizeParentMax=0;resizeLast=0;collapsible=1;marginBottom=0;whiteSpace=wrap;html=1;" vertex="1" parent="WIyWlLk6GJQsqaUBKTNV-1">
          <mxGeometry x="-470" y="80" width="360" height="260" as="geometry" />
        </mxCell>
        <mxCell id="Fx_bJ2mfmY8YGPZaH9oz-5" value="(유한) 상태 기계가 가질 수 있는 각 상태" style="text;strokeColor=none;fillColor=none;align=left;verticalAlign=middle;spacingLeft=4;spacingRight=4;overflow=hidden;points=[[0,0.5],[1,0.5]];portConstraint=eastwest;rotatable=0;whiteSpace=wrap;html=1;" vertex="1" parent="Fx_bJ2mfmY8YGPZaH9oz-4">
          <mxGeometry y="30" width="360" height="30" as="geometry" />
        </mxCell>
        <mxCell id="Fx_bJ2mfmY8YGPZaH9oz-6" value="일종의 분류, 개념으로서의 클래스(abstract)이기 때문에 MonoBehavior를 상속받을 필요 없음" style="text;strokeColor=none;fillColor=none;align=left;verticalAlign=middle;spacingLeft=4;spacingRight=4;overflow=hidden;points=[[0,0.5],[1,0.5]];portConstraint=eastwest;rotatable=0;whiteSpace=wrap;html=1;" vertex="1" parent="Fx_bJ2mfmY8YGPZaH9oz-4">
          <mxGeometry y="60" width="360" height="50" as="geometry" />
        </mxCell>
        <mxCell id="Fx_bJ2mfmY8YGPZaH9oz-52" value="abstract Method()" style="swimlane;whiteSpace=wrap;html=1;" vertex="1" parent="Fx_bJ2mfmY8YGPZaH9oz-4">
          <mxGeometry y="110" width="360" height="150" as="geometry" />
        </mxCell>
        <mxCell id="Fx_bJ2mfmY8YGPZaH9oz-53" value="public abstract void &lt;b&gt;Enter&lt;/b&gt;();" style="shape=process;whiteSpace=wrap;html=1;backgroundOutline=1;" vertex="1" parent="Fx_bJ2mfmY8YGPZaH9oz-52">
          <mxGeometry x="20" y="40" width="200" height="30" as="geometry" />
        </mxCell>
        <mxCell id="Fx_bJ2mfmY8YGPZaH9oz-54" value="public abstract void &lt;b&gt;Tick&lt;/b&gt;(float deltatime);" style="shape=process;whiteSpace=wrap;html=1;backgroundOutline=1;" vertex="1" parent="Fx_bJ2mfmY8YGPZaH9oz-52">
          <mxGeometry x="20" y="70" width="280" height="30" as="geometry" />
        </mxCell>
        <mxCell id="Fx_bJ2mfmY8YGPZaH9oz-55" value="public abstract void &lt;b&gt;Exit&lt;/b&gt;();" style="shape=process;whiteSpace=wrap;html=1;backgroundOutline=1;" vertex="1" parent="Fx_bJ2mfmY8YGPZaH9oz-52">
          <mxGeometry x="20" y="100" width="200" height="30" as="geometry" />
        </mxCell>
        <mxCell id="Fx_bJ2mfmY8YGPZaH9oz-25" style="edgeStyle=orthogonalEdgeStyle;rounded=0;orthogonalLoop=1;jettySize=auto;html=1;entryX=0.5;entryY=0;entryDx=0;entryDy=0;" edge="1" parent="WIyWlLk6GJQsqaUBKTNV-1" source="Fx_bJ2mfmY8YGPZaH9oz-8" target="Fx_bJ2mfmY8YGPZaH9oz-22">
          <mxGeometry relative="1" as="geometry" />
        </mxCell>
        <mxCell id="Fx_bJ2mfmY8YGPZaH9oz-39" style="edgeStyle=orthogonalEdgeStyle;rounded=0;orthogonalLoop=1;jettySize=auto;html=1;entryX=0.5;entryY=0;entryDx=0;entryDy=0;" edge="1" parent="WIyWlLk6GJQsqaUBKTNV-1" source="Fx_bJ2mfmY8YGPZaH9oz-8" target="Fx_bJ2mfmY8YGPZaH9oz-37">
          <mxGeometry relative="1" as="geometry" />
        </mxCell>
        <mxCell id="Fx_bJ2mfmY8YGPZaH9oz-8" value="&lt;font style=&quot;border-color: var(--border-color);&quot;&gt;public class&amp;nbsp;&lt;font color=&quot;#cc0000&quot; style=&quot;font-weight: 700; border-color: var(--border-color);&quot;&gt;BaseStateMachine&lt;/font&gt;&lt;span style=&quot;color: rgb(0, 0, 0); font-weight: 700;&quot;&gt;&amp;nbsp;: &lt;/span&gt;&lt;span style=&quot;color: rgb(0, 0, 0);&quot;&gt;MonoBehaviour&lt;/span&gt;&lt;br&gt;&lt;/font&gt;" style="swimlane;fontStyle=0;childLayout=stackLayout;horizontal=1;startSize=30;horizontalStack=0;resizeParent=1;resizeParentMax=0;resizeLast=0;collapsible=1;marginBottom=0;whiteSpace=wrap;html=1;" vertex="1" parent="WIyWlLk6GJQsqaUBKTNV-1">
          <mxGeometry x="330" y="80" width="470" height="400" as="geometry" />
        </mxCell>
        <mxCell id="Fx_bJ2mfmY8YGPZaH9oz-9" value="상태 머신 : 플레이어나 적의 상태 정보 또는 두뇌(체력, 공격력)" style="text;strokeColor=none;fillColor=none;align=left;verticalAlign=middle;spacingLeft=4;spacingRight=4;overflow=hidden;points=[[0,0.5],[1,0.5]];portConstraint=eastwest;rotatable=0;whiteSpace=wrap;html=1;" vertex="1" parent="Fx_bJ2mfmY8YGPZaH9oz-8">
          <mxGeometry y="30" width="470" height="30" as="geometry" />
        </mxCell>
        <mxCell id="Fx_bJ2mfmY8YGPZaH9oz-40" value="MonoBehaviour를 상속받은 기반상태기계를 상속받은&lt;br&gt;&lt;b style=&quot;border-color: var(--border-color); text-align: center;&quot;&gt;EnemyStateMachine&lt;/b&gt;과&lt;b style=&quot;border-color: var(--border-color); text-align: center;&quot;&gt;PlayerStateMachine&lt;/b&gt;만&lt;br&gt;오브젝트 컴포넌트로 등록할 수 있다." style="text;strokeColor=none;fillColor=none;align=left;verticalAlign=middle;spacingLeft=4;spacingRight=4;overflow=hidden;points=[[0,0.5],[1,0.5]];portConstraint=eastwest;rotatable=0;whiteSpace=wrap;html=1;" vertex="1" parent="Fx_bJ2mfmY8YGPZaH9oz-8">
          <mxGeometry y="60" width="470" height="60" as="geometry" />
        </mxCell>
        <mxCell id="Fx_bJ2mfmY8YGPZaH9oz-47" value="Field" style="swimlane;whiteSpace=wrap;html=1;" vertex="1" parent="Fx_bJ2mfmY8YGPZaH9oz-8">
          <mxGeometry y="120" width="470" height="80" as="geometry" />
        </mxCell>
        <mxCell id="Fx_bJ2mfmY8YGPZaH9oz-48" value="State &lt;b&gt;currentState&lt;/b&gt; = null;" style="shape=process;whiteSpace=wrap;html=1;backgroundOutline=1;" vertex="1" parent="Fx_bJ2mfmY8YGPZaH9oz-47">
          <mxGeometry x="10" y="30" width="190" height="40" as="geometry" />
        </mxCell>
        <mxCell id="Fx_bJ2mfmY8YGPZaH9oz-46" value="Method()" style="swimlane;whiteSpace=wrap;html=1;" vertex="1" parent="Fx_bJ2mfmY8YGPZaH9oz-8">
          <mxGeometry y="200" width="470" height="200" as="geometry" />
        </mxCell>
        <mxCell id="Fx_bJ2mfmY8YGPZaH9oz-44" value="public void &lt;b&gt;SwitchState&lt;/b&gt;(State newState)&lt;span style=&quot;background-color: initial;&quot;&gt;{&lt;/span&gt;&lt;br&gt;&lt;div&gt;&amp;nbsp; &amp;nbsp; &amp;nbsp;currentState?.Exit();&lt;/div&gt;&lt;div&gt;&amp;nbsp; &amp;nbsp; &amp;nbsp;currentState = newState;&lt;/div&gt;&lt;div&gt;&amp;nbsp; &amp;nbsp; &amp;nbsp;currentState.Enter();&lt;span style=&quot;background-color: initial;&quot;&gt;&amp;nbsp;}&lt;/span&gt;&lt;/div&gt;" style="shape=process;whiteSpace=wrap;html=1;backgroundOutline=1;" vertex="1" parent="Fx_bJ2mfmY8YGPZaH9oz-46">
          <mxGeometry x="20" y="30" width="450" height="80" as="geometry" />
        </mxCell>
        <mxCell id="Fx_bJ2mfmY8YGPZaH9oz-45" value="&lt;div&gt;private void &lt;b&gt;Update&lt;/b&gt;()&lt;span style=&quot;background-color: initial;&quot;&gt;{&lt;/span&gt;&lt;/div&gt;&lt;div&gt;&amp;nbsp; &amp;nbsp; currentState.&lt;b&gt;Tick&lt;/b&gt;(Time.deltaTime);&lt;span style=&quot;background-color: initial;&quot;&gt;}&lt;/span&gt;&lt;/div&gt;" style="shape=process;whiteSpace=wrap;html=1;backgroundOutline=1;" vertex="1" parent="Fx_bJ2mfmY8YGPZaH9oz-46">
          <mxGeometry x="20" y="110" width="290" height="60" as="geometry" />
        </mxCell>
        <mxCell id="Fx_bJ2mfmY8YGPZaH9oz-62" style="edgeStyle=orthogonalEdgeStyle;rounded=0;orthogonalLoop=1;jettySize=auto;html=1;exitX=0.5;exitY=1;exitDx=0;exitDy=0;" edge="1" parent="Fx_bJ2mfmY8YGPZaH9oz-46" source="Fx_bJ2mfmY8YGPZaH9oz-44" target="Fx_bJ2mfmY8YGPZaH9oz-44">
          <mxGeometry relative="1" as="geometry" />
        </mxCell>
        <mxCell id="Fx_bJ2mfmY8YGPZaH9oz-26" style="edgeStyle=orthogonalEdgeStyle;rounded=0;orthogonalLoop=1;jettySize=auto;html=1;entryX=0.5;entryY=0;entryDx=0;entryDy=0;" edge="1" parent="WIyWlLk6GJQsqaUBKTNV-1" source="Fx_bJ2mfmY8YGPZaH9oz-14" target="Fx_bJ2mfmY8YGPZaH9oz-20">
          <mxGeometry relative="1" as="geometry" />
        </mxCell>
        <mxCell id="Fx_bJ2mfmY8YGPZaH9oz-14" value="&lt;font style=&quot;border-color: var(--border-color);&quot;&gt;public class &lt;b&gt;EnemyBaseState&lt;/b&gt; : State&lt;br&gt;&lt;/font&gt;" style="swimlane;fontStyle=0;childLayout=stackLayout;horizontal=1;startSize=30;horizontalStack=0;resizeParent=1;resizeParentMax=0;resizeLast=0;collapsible=1;marginBottom=0;whiteSpace=wrap;html=1;" vertex="1" parent="WIyWlLk6GJQsqaUBKTNV-1">
          <mxGeometry x="-633.5" y="410" width="230" height="150" as="geometry" />
        </mxCell>
        <mxCell id="Fx_bJ2mfmY8YGPZaH9oz-15" value="적의 기반 상태" style="text;strokeColor=none;fillColor=none;align=left;verticalAlign=middle;spacingLeft=4;spacingRight=4;overflow=hidden;points=[[0,0.5],[1,0.5]];portConstraint=eastwest;rotatable=0;whiteSpace=wrap;html=1;" vertex="1" parent="Fx_bJ2mfmY8YGPZaH9oz-14">
          <mxGeometry y="30" width="230" height="30" as="geometry" />
        </mxCell>
        <mxCell id="Fx_bJ2mfmY8YGPZaH9oz-56" value="public override void &lt;b&gt;Enter&lt;/b&gt;()" style="text;strokeColor=none;fillColor=none;align=left;verticalAlign=middle;spacingLeft=4;spacingRight=4;overflow=hidden;points=[[0,0.5],[1,0.5]];portConstraint=eastwest;rotatable=0;whiteSpace=wrap;html=1;" vertex="1" parent="Fx_bJ2mfmY8YGPZaH9oz-14">
          <mxGeometry y="60" width="230" height="30" as="geometry" />
        </mxCell>
        <mxCell id="Fx_bJ2mfmY8YGPZaH9oz-57" value="public override void &lt;b&gt;Tick&lt;/b&gt;(float deltatime)" style="text;strokeColor=none;fillColor=none;align=left;verticalAlign=middle;spacingLeft=4;spacingRight=4;overflow=hidden;points=[[0,0.5],[1,0.5]];portConstraint=eastwest;rotatable=0;whiteSpace=wrap;html=1;" vertex="1" parent="Fx_bJ2mfmY8YGPZaH9oz-14">
          <mxGeometry y="90" width="230" height="30" as="geometry" />
        </mxCell>
        <mxCell id="Fx_bJ2mfmY8YGPZaH9oz-58" value="public override void &lt;b&gt;Exit&lt;/b&gt;()" style="text;strokeColor=none;fillColor=none;align=left;verticalAlign=middle;spacingLeft=4;spacingRight=4;overflow=hidden;points=[[0,0.5],[1,0.5]];portConstraint=eastwest;rotatable=0;whiteSpace=wrap;html=1;" vertex="1" parent="Fx_bJ2mfmY8YGPZaH9oz-14">
          <mxGeometry y="120" width="230" height="30" as="geometry" />
        </mxCell>
        <mxCell id="Fx_bJ2mfmY8YGPZaH9oz-20" value="&lt;font style=&quot;border-color: var(--border-color);&quot;&gt;public class &lt;b&gt;EnemyIdleState&lt;/b&gt; : EnemyBaseState&lt;br&gt;&lt;/font&gt;" style="swimlane;fontStyle=0;childLayout=stackLayout;horizontal=1;startSize=30;horizontalStack=0;resizeParent=1;resizeParentMax=0;resizeLast=0;collapsible=1;marginBottom=0;whiteSpace=wrap;html=1;" vertex="1" parent="WIyWlLk6GJQsqaUBKTNV-1">
          <mxGeometry x="-857" y="665" width="177" height="60" as="geometry" />
        </mxCell>
        <mxCell id="Fx_bJ2mfmY8YGPZaH9oz-21" value="적의 Idle 상태" style="text;strokeColor=none;fillColor=none;align=left;verticalAlign=middle;spacingLeft=4;spacingRight=4;overflow=hidden;points=[[0,0.5],[1,0.5]];portConstraint=eastwest;rotatable=0;whiteSpace=wrap;html=1;" vertex="1" parent="Fx_bJ2mfmY8YGPZaH9oz-20">
          <mxGeometry y="30" width="177" height="30" as="geometry" />
        </mxCell>
        <mxCell id="Fx_bJ2mfmY8YGPZaH9oz-22" value="&lt;font style=&quot;border-color: var(--border-color);&quot;&gt;public class &lt;b&gt;EnemyStateMachine &lt;/b&gt;: BaseStateMachine&lt;br&gt;&lt;/font&gt;" style="swimlane;fontStyle=0;childLayout=stackLayout;horizontal=1;startSize=30;horizontalStack=0;resizeParent=1;resizeParentMax=0;resizeLast=0;collapsible=1;marginBottom=0;whiteSpace=wrap;html=1;" vertex="1" parent="WIyWlLk6GJQsqaUBKTNV-1">
          <mxGeometry x="150" y="555" width="310" height="60" as="geometry" />
        </mxCell>
        <mxCell id="Fx_bJ2mfmY8YGPZaH9oz-23" value="적의 (유한) 상태 기계" style="text;strokeColor=none;fillColor=none;align=left;verticalAlign=middle;spacingLeft=4;spacingRight=4;overflow=hidden;points=[[0,0.5],[1,0.5]];portConstraint=eastwest;rotatable=0;whiteSpace=wrap;html=1;" vertex="1" parent="Fx_bJ2mfmY8YGPZaH9oz-22">
          <mxGeometry y="30" width="310" height="30" as="geometry" />
        </mxCell>
        <mxCell id="Fx_bJ2mfmY8YGPZaH9oz-35" style="edgeStyle=orthogonalEdgeStyle;rounded=0;orthogonalLoop=1;jettySize=auto;html=1;entryX=0.5;entryY=0;entryDx=0;entryDy=0;" edge="1" parent="WIyWlLk6GJQsqaUBKTNV-1" source="Fx_bJ2mfmY8YGPZaH9oz-28" target="Fx_bJ2mfmY8YGPZaH9oz-32">
          <mxGeometry relative="1" as="geometry" />
        </mxCell>
        <mxCell id="Fx_bJ2mfmY8YGPZaH9oz-28" value="&lt;font style=&quot;border-color: var(--border-color);&quot;&gt;public class &lt;b&gt;PlayerBaseState&lt;/b&gt;&amp;nbsp;: State&lt;br&gt;&lt;/font&gt;" style="swimlane;fontStyle=0;childLayout=stackLayout;horizontal=1;startSize=30;horizontalStack=0;resizeParent=1;resizeParentMax=0;resizeLast=0;collapsible=1;marginBottom=0;whiteSpace=wrap;html=1;" vertex="1" parent="WIyWlLk6GJQsqaUBKTNV-1">
          <mxGeometry x="-176.5" y="410" width="230" height="150" as="geometry" />
        </mxCell>
        <mxCell id="Fx_bJ2mfmY8YGPZaH9oz-29" value="플레이어의 기반 상태" style="text;strokeColor=none;fillColor=none;align=left;verticalAlign=middle;spacingLeft=4;spacingRight=4;overflow=hidden;points=[[0,0.5],[1,0.5]];portConstraint=eastwest;rotatable=0;whiteSpace=wrap;html=1;" vertex="1" parent="Fx_bJ2mfmY8YGPZaH9oz-28">
          <mxGeometry y="30" width="230" height="30" as="geometry" />
        </mxCell>
        <mxCell id="Fx_bJ2mfmY8YGPZaH9oz-59" value="public override void &lt;b&gt;Enter&lt;/b&gt;()" style="text;strokeColor=none;fillColor=none;align=left;verticalAlign=middle;spacingLeft=4;spacingRight=4;overflow=hidden;points=[[0,0.5],[1,0.5]];portConstraint=eastwest;rotatable=0;whiteSpace=wrap;html=1;" vertex="1" parent="Fx_bJ2mfmY8YGPZaH9oz-28">
          <mxGeometry y="60" width="230" height="30" as="geometry" />
        </mxCell>
        <mxCell id="Fx_bJ2mfmY8YGPZaH9oz-60" value="public override void &lt;b&gt;Tick&lt;/b&gt;(float deltatime)" style="text;strokeColor=none;fillColor=none;align=left;verticalAlign=middle;spacingLeft=4;spacingRight=4;overflow=hidden;points=[[0,0.5],[1,0.5]];portConstraint=eastwest;rotatable=0;whiteSpace=wrap;html=1;" vertex="1" parent="Fx_bJ2mfmY8YGPZaH9oz-28">
          <mxGeometry y="90" width="230" height="30" as="geometry" />
        </mxCell>
        <mxCell id="Fx_bJ2mfmY8YGPZaH9oz-61" value="public override void &lt;b&gt;Exit&lt;/b&gt;()" style="text;strokeColor=none;fillColor=none;align=left;verticalAlign=middle;spacingLeft=4;spacingRight=4;overflow=hidden;points=[[0,0.5],[1,0.5]];portConstraint=eastwest;rotatable=0;whiteSpace=wrap;html=1;" vertex="1" parent="Fx_bJ2mfmY8YGPZaH9oz-28">
          <mxGeometry y="120" width="230" height="30" as="geometry" />
        </mxCell>
        <mxCell id="Fx_bJ2mfmY8YGPZaH9oz-32" value="&lt;font style=&quot;border-color: var(--border-color);&quot;&gt;public class &lt;b&gt;PlayerFreeLookState&lt;/b&gt; : PlayerBaseState&lt;br&gt;&lt;/font&gt;" style="swimlane;fontStyle=0;childLayout=stackLayout;horizontal=1;startSize=30;horizontalStack=0;resizeParent=1;resizeParentMax=0;resizeLast=0;collapsible=1;marginBottom=0;whiteSpace=wrap;html=1;" vertex="1" parent="WIyWlLk6GJQsqaUBKTNV-1">
          <mxGeometry x="-310" y="665" width="230" height="160" as="geometry" />
        </mxCell>
        <mxCell id="Fx_bJ2mfmY8YGPZaH9oz-33" value="플레이어가 자유롭게 돌아다니면서 카메라 시점을 바꿀 수 있는 상태" style="text;strokeColor=none;fillColor=none;align=left;verticalAlign=middle;spacingLeft=4;spacingRight=4;overflow=hidden;points=[[0,0.5],[1,0.5]];portConstraint=eastwest;rotatable=0;whiteSpace=wrap;html=1;" vertex="1" parent="Fx_bJ2mfmY8YGPZaH9oz-32">
          <mxGeometry y="30" width="230" height="40" as="geometry" />
        </mxCell>
        <mxCell id="Fx_bJ2mfmY8YGPZaH9oz-63" value="public override void &lt;b&gt;Enter&lt;/b&gt;()" style="text;strokeColor=none;fillColor=none;align=left;verticalAlign=middle;spacingLeft=4;spacingRight=4;overflow=hidden;points=[[0,0.5],[1,0.5]];portConstraint=eastwest;rotatable=0;whiteSpace=wrap;html=1;" vertex="1" parent="Fx_bJ2mfmY8YGPZaH9oz-32">
          <mxGeometry y="70" width="230" height="30" as="geometry" />
        </mxCell>
        <mxCell id="Fx_bJ2mfmY8YGPZaH9oz-65" value="public override void &lt;b&gt;Tick&lt;/b&gt;(float deltatime)" style="text;strokeColor=none;fillColor=none;align=left;verticalAlign=middle;spacingLeft=4;spacingRight=4;overflow=hidden;points=[[0,0.5],[1,0.5]];portConstraint=eastwest;rotatable=0;whiteSpace=wrap;html=1;" vertex="1" parent="Fx_bJ2mfmY8YGPZaH9oz-32">
          <mxGeometry y="100" width="230" height="30" as="geometry" />
        </mxCell>
        <mxCell id="Fx_bJ2mfmY8YGPZaH9oz-64" value="public override void &lt;b&gt;Exit&lt;/b&gt;()" style="text;strokeColor=none;fillColor=none;align=left;verticalAlign=middle;spacingLeft=4;spacingRight=4;overflow=hidden;points=[[0,0.5],[1,0.5]];portConstraint=eastwest;rotatable=0;whiteSpace=wrap;html=1;" vertex="1" parent="Fx_bJ2mfmY8YGPZaH9oz-32">
          <mxGeometry y="130" width="230" height="30" as="geometry" />
        </mxCell>
        <mxCell id="Fx_bJ2mfmY8YGPZaH9oz-37" value="&lt;font style=&quot;border-color: var(--border-color);&quot;&gt;public class &lt;b&gt;PlayerStateMachine &lt;/b&gt;: BaseStateMachine&lt;br&gt;&lt;/font&gt;" style="swimlane;fontStyle=0;childLayout=stackLayout;horizontal=1;startSize=30;horizontalStack=0;resizeParent=1;resizeParentMax=0;resizeLast=0;collapsible=1;marginBottom=0;whiteSpace=wrap;html=1;" vertex="1" parent="WIyWlLk6GJQsqaUBKTNV-1">
          <mxGeometry x="550" y="555" width="330" height="260" as="geometry" />
        </mxCell>
        <mxCell id="Fx_bJ2mfmY8YGPZaH9oz-38" value="플레이어의 (유한) 상태 기계" style="text;strokeColor=none;fillColor=none;align=left;verticalAlign=middle;spacingLeft=4;spacingRight=4;overflow=hidden;points=[[0,0.5],[1,0.5]];portConstraint=eastwest;rotatable=0;whiteSpace=wrap;html=1;" vertex="1" parent="Fx_bJ2mfmY8YGPZaH9oz-37">
          <mxGeometry y="30" width="330" height="30" as="geometry" />
        </mxCell>
        <mxCell id="Fx_bJ2mfmY8YGPZaH9oz-50" value="Start()" style="swimlane;whiteSpace=wrap;html=1;" vertex="1" parent="Fx_bJ2mfmY8YGPZaH9oz-37">
          <mxGeometry y="60" width="330" height="200" as="geometry" />
        </mxCell>
        <mxCell id="Fx_bJ2mfmY8YGPZaH9oz-51" value="&lt;b&gt;SwitchState&lt;/b&gt;(new &lt;b&gt;PlayerFreeLookState&lt;/b&gt;);" style="shape=process;whiteSpace=wrap;html=1;backgroundOutline=1;" vertex="1" parent="Fx_bJ2mfmY8YGPZaH9oz-50">
          <mxGeometry x="15" y="35" width="300" height="40" as="geometry" />
        </mxCell>
      </root>
    </mxGraphModel>
  </diagram>
</mxfile>
